<svg width="261" height="224" viewBox="0 0 261 224" fill="none" xmlns="http://www.w3.org/2000/svg">
<path d="M225.54 20.5707L157.926 20.3875L124.822 78.5954L157.254 136.07L225.052 136.437L258.34 78.229L225.54 20.5707Z" fill="#ACCFEB" stroke="#ACCFEB"/>
<path d="M191.372 72.9966C157.988 77.1248 144.909 80.2323 137.343 100.645L157.132 136.498L225.341 136.835L258.852 79.1753C243.216 72.2124 246.121 72.9436 218.706 72.7113L218.853 61.4424L191.372 62.4409V72.9966Z" fill="white"/>
<rect x="188.678" y="56.3073" width="32.8082" height="10.841" fill="#F1BD88"/>
<path d="M223.811 35.6433C226.521 53.6164 216.351 61.7278 199.234 63.2969C184.684 65.0086 178.122 59.1602 178.693 38.9047C178.408 16.5096 188.111 5.51372 201.844 7.11448C213.897 7.11448 224.952 19.0965 223.811 35.6433Z" fill="#F1BD88"/>
<path d="M192.53 11.089C191.806 23.1848 189.355 25.4802 179.22 29.1074C178.246 48.8317 177.695 60.4439 191.246 63.1542L191.531 78.7024C162.146 77.5612 150.164 84.5508 138.61 97.2461C137.412 71.5973 148.089 56.5842 163.814 46.0821C160.746 44.5661 166.835 24.0047 179.22 29.1074C176.795 18.8371 187.13 5.04581 199.618 4.43C210.616 3.88767 217.492 8.13875 221.914 21.6899L223.911 30.3912L226.336 33.9573C242.337 35.2906 242.764 45.3075 241.909 52.0261C254.186 55.5076 262.554 65.097 258.462 78.9618C230.732 72.4264 239.466 73.4647 215.067 76.5627L214.925 67.4335C204.18 60.0363 209.147 47.3146 218.633 38.4767L211.172 25.8266C203.342 23.9557 198.128 21.4787 192.53 11.089Z" fill="#CD4B72"/>
<path d="M179.22 29.1074C189.355 25.4802 191.806 23.1848 192.53 11.089C198.128 21.4787 203.342 23.9557 211.172 25.8266L218.633 38.4767C209.147 47.3146 204.18 60.0363 214.925 67.4335L215.067 76.5627C239.466 73.4647 230.732 72.4264 258.462 78.9618C262.554 65.097 254.186 55.5076 241.909 52.0261C242.764 45.3075 242.337 35.2906 226.336 33.9573L223.911 30.3912L221.914 21.6899C217.492 8.13875 210.616 3.88767 199.618 4.43C187.13 5.04581 176.795 18.8371 179.22 29.1074ZM179.22 29.1074C166.835 24.0047 160.746 44.5661 163.814 46.0821C148.089 56.5842 137.412 71.5973 138.61 97.2461C150.164 84.5508 162.146 77.5612 191.531 78.7024L191.246 63.1542C177.695 60.4439 178.246 48.8317 179.22 29.1074Z" stroke="#CD4B72"/>
<circle cx="218.391" cy="30.0801" r="9.27187" fill="#F1BD88"/>
<path d="M183.543 33.7695C183.543 33.7695 184.019 31.6299 187.109 31.6299C190.2 31.6299 190.675 33.7695 190.675 33.7695" stroke="black" stroke-width="2" stroke-linecap="round"/>
<path d="M198.948 33.7694C198.948 33.7694 199.424 31.6298 202.515 31.6298C205.605 31.6298 206.081 33.7694 206.081 33.7694" stroke="black" stroke-width="2" stroke-linecap="round"/>
<line x1="195.98" y1="33.6023" x2="196.207" y2="42.4441" stroke="black" stroke-width="2" stroke-linecap="round"/>
<path d="M195.465 47.1865C198.771 47.5383 200.384 46.9803 202.666 44.1002" stroke="black" stroke-width="2" stroke-linecap="round"/>
<path d="M180.037 91.5339L170.914 96.2373" stroke="#ACCFEB" stroke-width="4" stroke-linecap="round"/>
<path d="M161.576 113.935L168.834 121.194" stroke="#ACCFEB" stroke-width="4" stroke-linecap="round"/>
<path d="M254.696 83.6472L249.666 88.0301" stroke="#ACCFEB" stroke-width="4" stroke-linecap="round"/>
<path d="M206.055 121.068L200.424 129.65" stroke="#ACCFEB" stroke-width="4" stroke-linecap="round"/>
<path d="M195.24 74.2803L202.498 81.5386" stroke="#ACCFEB" stroke-width="4" stroke-linecap="round"/>
<path d="M223.979 97.6255L222.266 107.746" stroke="#ACCFEB" stroke-width="4" stroke-linecap="round"/>
<path d="M114.392 12.3374C114.337 25.8369 123.165 24.5849 133.988 24.5849C144.81 24.5849 153.856 25.347 153.584 12.3374C153.638 0.416444 144.81 0.0898438 133.988 0.0898438C123.165 0.0898438 114.228 0.906345 114.392 12.3374Z" fill="#3563D8"/>
<path d="M144.493 32.8587L144.276 24.3126L136.655 24.7481L144.493 32.8587Z" fill="#3563D8" stroke="#3563D8"/>
<circle cx="143.562" cy="12.8527" r="2.2349" stroke="white"/>
<circle cx="125.329" cy="12.8527" r="2.2349" stroke="white"/>
<circle cx="134.446" cy="12.8527" r="2.2349" stroke="white"/>
<rect x="12.1104" y="44.8215" width="99.473" height="98.9594" fill="#2DAE85"/>
<path d="M45.8816 88.8207L66.2316 84.9384C73.5501 82.4949 81.206 76.1813 88.6443 77.7644C97.2528 79.5965 100.95 84.9007 105.94 92.0607L105.985 92.1259C108.864 96.2562 108.54 97.4449 111.632 103.695L111.825 122.707L111.68 144.131L12.0134 143.604L12.1103 124.768L12.0134 99.7007C13.7108 94.1545 17.3137 93.5287 23.447 92.3918L45.8816 88.8207Z" fill="#CBFFEE"/>
<path d="M74.3232 82.0146C74.3232 82.0146 84.3658 89.241 88.5682 93.4698C98.8196 103.785 108.744 123.652 111.099 133.395" stroke="#2DAE85" stroke-width="2"/>
<path d="M23.1895 93.2361C33.7874 95.6958 37.5295 99.3992 38.7501 111.112C39.9708 122.825 30.716 143.316 30.716 143.316" stroke="#2DAE85" stroke-width="2"/>
<path d="M43.7457 89.2003L39.7129 73.509L67.6738 76.9664L68.7492 84.2801C67.2697 96.7497 54.9415 100.378 43.7457 89.2003Z" fill="#CF9479"/>
<path d="M68.2113 80.158L62.8342 76.0357L67.0015 71.6475L68.2113 80.158Z" fill="black"/>
<path d="M74.2605 61.4082C76.6802 72.8442 66.1456 81.2217 55.3063 81.2217C44.4669 81.2217 27.8831 64.5509 27.8831 53.8285C27.8831 43.1061 36.6701 34.8129 47.5095 34.8129C59.6079 36.0097 71.8408 49.9722 74.2605 61.4082Z" fill="#CF9479"/>
<path d="M55.0711 42.7059C58.3769 45.1182 60.2313 45.1888 63.54 43.3708C56.5007 34.4908 51.8862 32.8574 42.5693 35.2592C38.9168 26.1125 35.2946 25.2157 27.5134 27.1476C15.0754 18.9136 2.2372 30.2414 8.82801 40.0463C-6.28242 48.0872 0.429978 65.8043 13.6674 61.7215C17.5805 72.0031 21.1008 73.7462 30.7397 66.6417L38.8053 70.764L40.6873 77.6787C42.9575 76.1624 43.6295 74.8842 42.8386 71.1637L44.5857 58.5301C44.8474 54.3912 44.2249 52.5514 41.8972 50.0196C45.3891 49.1656 46.5956 48.0043 47.0054 44.4346C50.6343 45.6506 52.4525 45.5026 55.0711 42.7059Z" fill="#0F0D0E"/>
<ellipse cx="37.8308" cy="65.2646" rx="8.33451" ry="8.24456" fill="#CF9479"/>
<ellipse cx="62.2967" cy="50.903" rx="1.34428" ry="1.32977" fill="black"/>
<ellipse cx="54.231" cy="55.6902" rx="1.34428" ry="1.32977" fill="black"/>
<path d="M58.1187 54.0476L63.3925 59.4055" stroke="black" stroke-width="2" stroke-linecap="round"/>
<path d="M59.7424 62.4719C62.7362 64.5403 64.3968 64.2638 66.8671 61.8072" stroke="black" stroke-width="2" stroke-linecap="round"/>
<path d="M41.8538 35.2975C39.0245 36.4727 36.8858 38.1295 35.1895 40.0868" stroke="#2DAE85" stroke-width="2" stroke-linecap="round"/>
<path d="M123.889 24.4056C123.954 40.5295 113.41 39.0341 100.483 39.0341C87.5563 39.0341 76.7521 39.9444 77.0772 24.4056C77.0122 10.1671 87.5563 9.77698 100.483 9.77698C113.41 9.77698 124.084 10.7522 123.889 24.4056Z" fill="#7B6A59" fill-opacity="0.66"/>
<path d="M87.9348 48.9165L88.1949 38.709L97.2971 39.2291L87.9348 48.9165Z" fill="#7B6A59" fill-opacity="0.66" stroke="#7D7367"/>
<path d="M123.409 25.2254C123.477 42.253 112.342 40.6738 98.6911 40.6738C85.04 40.6738 73.6303 41.635 73.9736 25.2254C73.905 10.1889 85.04 9.77698 98.6911 9.77698C112.342 9.77698 123.614 10.8069 123.409 25.2254Z" fill="#3563D8"/>
<path d="M85.4399 51.11L85.7146 40.3304L95.3269 40.8797L85.4399 51.11Z" fill="#3563D8" stroke="#3563D8"/>
<circle cx="110.056" cy="26.1478" r="3.07187" stroke="white"/>
<circle cx="86.243" cy="26.1478" r="3.07187" stroke="white"/>
<circle cx="98.1493" cy="26.1478" r="3.07187" stroke="white"/>
<circle cx="63.2941" cy="63.2941" r="63.2941" transform="matrix(-1 0 0 1 178.638 97.1053)" fill="#F9A19B"/>
<path d="M138.601 170.507V154.638L111.462 151.555L111.716 171.42L130.485 182.608L138.601 170.507Z" fill="#734D27"/>
<path d="M85.1719 150.11C80.5594 154.124 79.5439 158.686 79.9854 170.15C79.9854 170.15 68.1046 175.206 63.714 181.622C61.5774 184.745 60.4267 189.978 59.6809 190.432C58.935 190.885 76.3856 223.762 115.124 223.697C115.124 223.697 133.269 224.201 148.894 214.121C165.104 203.662 170.43 191.833 170.43 191.833C170.43 191.833 160.046 172.599 150.705 174.577C152.495 162.275 153.819 154.102 142.444 149.427L137.699 153.526L138.03 162.635L130.857 170.264L104.042 147.035C95.4465 145.147 91.1088 145.297 85.1719 150.11Z" fill="#FED6E3"/>
<path d="M103.031 168.11C101.111 168.11 79.9488 168.165 79.9488 168.165L79.469 170.222C79.469 170.222 101.447 170.03 103.174 169.934C104.902 169.838 104.95 168.11 103.031 168.11Z" fill="#F9A19B"/>
<path d="M123.146 186.79C123.159 184.871 123.242 163.709 123.242 163.709L121.313 162.016C121.313 162.016 121.237 185.194 121.322 186.923C121.407 188.651 123.134 188.71 123.146 186.79Z" fill="#F9A19B"/>
<path d="M141.804 156.402C141.132 157.073 137.965 160.672 137.965 160.672L138.013 162.64C138.013 162.64 142.136 157.969 142.762 157.233C143.387 156.498 142.476 155.73 141.804 156.402Z" fill="#F9A19B"/>
<path d="M132.638 191.144C132.638 189.177 132.686 168.398 132.686 168.398L130.911 170.222C130.911 170.222 130.872 189.981 130.959 191.48C131.045 192.979 132.638 193.111 132.638 191.144Z" fill="#F9A19B"/>
<path d="M144.556 145.694C140.031 156.965 136.278 156.965 125.572 160.153C114.113 160.153 95.7721 141.595 96.876 128.844C96.876 117.023 107.049 106.985 118.509 106.985C131.753 106.416 150.185 130.666 144.556 145.694Z" fill="#734D27"/>
<path d="M133.521 138.771C131.702 138.933 129.826 138.579 128.866 138.339C127.906 138.1 127.666 139.347 128.722 139.779C129.778 140.211 131.798 140.43 133.761 140.211C135.406 140.028 136.736 139.587 137.84 139.059C138.943 138.531 138.511 137.38 137.504 137.764C136.496 138.148 135.119 138.629 133.521 138.771Z" fill="black"/>
<path d="M135.222 132.504C134.827 131.74 130.215 126.564 129.6 125.927C128.985 125.291 128.018 126.054 128.589 126.818C129.16 127.582 133.729 132.928 134.256 133.395C134.783 133.861 135.618 133.267 135.222 132.504Z" fill="black"/>
<path d="M119.506 112.03C122.758 112.851 124.606 112.736 128.001 109.898C125.398 108.246 123.91 107.74 121.228 107.293C115.325 106.513 112.085 107.141 106.418 110.017C100.509 114.216 98.3684 117.734 96.2012 125.646C95.1709 136.484 103.608 148.085 103.608 148.085L111.886 154.347C111.886 154.347 106.84 141.225 109.633 132.869C112.365 129.434 112.627 127.131 110.436 122.213C113.742 121.983 114.688 120.919 114.34 116.884C117.582 116.969 118.76 115.978 119.506 112.03Z" fill="black"/>
<ellipse cx="103.498" cy="141.823" rx="9.49192" ry="9.79109" fill="#734D27"/>
<circle cx="131.918" cy="119.98" r="1.19967" fill="black"/>
<circle cx="131.918" cy="119.98" r="1.19967" fill="black"/>
<circle cx="131.918" cy="119.98" r="1.19967" fill="black"/>
<circle cx="122.417" cy="129.481" r="1.19967" fill="black"/>
<circle cx="122.417" cy="129.481" r="1.19967" fill="black"/>
<circle cx="122.417" cy="129.481" r="1.19967" fill="black"/>
<path d="M193.621 114.266L193.621 114.266L193.621 114.275C193.635 117.886 193.062 120.451 192.058 122.28C191.062 124.095 189.622 125.225 187.814 125.933C185.99 126.647 183.79 126.932 181.293 127.033C179.592 127.101 177.784 127.084 175.884 127.066C174.988 127.058 174.072 127.049 173.136 127.049C172.517 127.049 171.905 127.051 171.3 127.053C169.064 127.062 166.935 127.07 164.955 126.958C162.442 126.817 160.218 126.483 158.377 125.736C156.55 124.994 155.101 123.846 154.116 122.056C153.125 120.253 152.58 117.757 152.652 114.284L152.652 114.284L152.652 114.271C152.638 111.099 153.208 108.748 154.21 106.996C155.209 105.252 156.659 104.062 158.481 103.246C162.168 101.595 167.31 101.498 173.136 101.498C178.95 101.498 184.127 101.726 187.83 103.443C189.663 104.292 191.119 105.5 192.112 107.222C193.109 108.948 193.664 111.231 193.621 114.266Z" fill="#7B6A59" fill-opacity="0.66" stroke="#A89D91"/>
<path d="M161.886 136.517L162.12 127.254L170.28 127.726L161.886 136.517Z" fill="#7B6A59" fill-opacity="0.66" stroke="#A89D91"/>
<path d="M201.736 110.446C201.807 127.979 190.342 126.353 176.286 126.353C162.23 126.353 150.482 127.342 150.835 110.446C150.764 94.9637 162.23 94.5396 176.286 94.5396C190.342 94.5396 201.948 95.6 201.736 110.446Z" fill="#3563D8"/>
<path d="M162.641 137.098L162.924 125.999L172.822 126.565L162.641 137.098Z" fill="#3563D8" stroke="#3563D8"/>
<circle cx="187.657" cy="110.788" r="2.74967" stroke="white"/>
<circle cx="165.992" cy="110.788" r="2.74967" stroke="white"/>
<circle cx="176.825" cy="110.788" r="2.74967" stroke="white"/>
</svg>
