<svg width="15" height="15" viewBox="0 0 15 15" fill="none" xmlns="http://www.w3.org/2000/svg">
<path d="M8.51729 7.47039L14.0229 1.96484C14.3649 1.62307 14.3649 1.06855 14.0229 0.726786C13.6808 0.384732 13.1269 0.384732 12.7848 0.726786L7.27925 6.23234L1.7734 0.726786C1.43134 0.384732 0.877403 0.384732 0.535349 0.726786C0.193295 1.06855 0.193295 1.62307 0.535349 1.96484L6.0412 7.47039L0.535349 12.9759C0.193295 13.3177 0.193295 13.8722 0.535349 14.214C0.706376 14.3847 0.930521 14.4702 1.15437 14.4702C1.37823 14.4702 1.60237 14.3847 1.7734 14.2137L7.27925 8.70815L12.7848 14.2137C12.9558 14.3847 13.18 14.4702 13.4038 14.4702C13.6277 14.4702 13.8518 14.3847 14.0229 14.2137C14.3649 13.8719 14.3649 13.3174 14.0229 12.9757L8.51729 7.47039Z" fill="white"/>
</svg>
